<svg width="180" height="180" viewBox="0 0 180 180" fill="none" xmlns="http://www.w3.org/2000/svg">
<rect width="180" height="180" fill="#E84D37"/>
<path d="M90.1443 27.6609C95.0255 27.6598 99.8213 28.8979 104.051 31.2514C108.281 33.6048 111.797 36.9909 114.246 41.0704C116.695 45.1499 117.991 49.7795 118.005 54.4954C118.018 59.2113 116.749 63.8479 114.324 67.9406C116.006 68.1727 117.588 68.8528 118.893 69.9047C120.198 70.9566 121.173 72.3387 121.711 73.8962C122.248 75.4536 122.326 77.1249 121.936 78.7228C121.545 80.3206 120.702 81.7818 119.5 82.9427C118.299 84.1036 116.786 84.9183 115.133 85.2954C113.479 85.6726 111.749 85.5974 110.137 85.0782C108.525 84.559 107.094 83.6163 106.005 82.3558C104.917 81.0953 104.213 79.5668 103.973 77.9415C103.628 78.1319 103.273 78.3127 102.919 78.4934C102.426 81.4237 100.87 84.089 98.5298 86.0125C96.1894 87.936 93.217 88.9922 90.1443 88.9922C87.0716 88.9922 84.0991 87.936 81.7587 86.0125C79.4182 84.089 77.8625 81.4237 77.3699 78.4934C77.0153 78.3127 76.6607 78.1319 76.316 77.9415C76.0764 79.5683 75.3722 81.0984 74.2825 82.3599C73.1927 83.6215 71.7607 84.5647 70.1469 85.0836C68.5332 85.6025 66.8017 85.6766 65.1468 85.2976C63.4919 84.9186 61.9791 84.1014 60.7782 82.9379C59.5773 81.7743 58.7358 80.3104 58.3483 78.7105C57.9607 77.1106 58.0423 75.4379 58.584 73.8803C59.1257 72.3227 60.1061 70.9419 61.415 69.8927C62.7239 68.8435 64.3096 68.1675 65.9941 67.9406C63.5702 63.85 62.301 59.216 62.3134 54.5025C62.3259 49.789 63.6196 45.1614 66.065 41.0827C68.5104 37.0041 72.0217 33.6176 76.2476 31.2621C80.4734 28.9066 85.2655 27.6648 90.1443 27.6609ZM90.1443 21C84.6752 20.9967 79.2826 22.2411 74.4054 24.6318C69.5281 27.0225 65.3041 30.492 62.0769 34.7579C58.8498 39.0239 56.7108 43.9657 55.834 49.1812C54.9573 54.3967 55.3675 59.7385 57.0313 64.7719C53.8069 67.2556 51.6984 70.8452 51.1449 74.7933C50.5915 78.7414 51.6357 82.7435 54.0601 85.9664C56.4845 89.1892 60.1023 91.3843 64.16 92.0945C68.2178 92.8047 72.4027 91.9753 75.8432 89.779C77.701 91.6416 79.9285 93.1232 82.3925 94.1352C84.8564 95.1471 87.5063 95.6687 90.1837 95.6687C92.861 95.6687 95.5109 95.1471 97.9749 94.1352C100.439 93.1232 102.666 91.6416 104.524 89.779C107.966 91.8483 112.092 92.5794 116.07 91.825C120.048 91.0705 123.582 88.8866 125.959 85.7138C128.335 82.541 129.378 78.6154 128.877 74.7288C128.376 70.8423 126.367 67.2841 123.257 64.7719C124.921 59.7385 125.331 54.3967 124.454 49.1812C123.578 43.9657 121.439 39.0239 118.212 34.7579C114.984 30.492 110.76 27.0225 105.883 24.6318C101.006 22.2411 95.6133 20.9967 90.1443 21Z" fill="white"/>
<path d="M113.024 95.9927C110.312 95.9869 107.63 95.4428 105.145 94.3941C104.78 94.6795 104.396 94.9365 104.012 95.2029L104.534 95.6977L100.693 99.4088L99.0479 97.8197C98.3683 98.0766 97.6789 98.305 96.9697 98.5048L99.2942 100.751L95.4628 104.462L91.6019 100.751L93.1286 99.2756C92.1485 99.3964 91.1618 99.4599 90.1738 99.4659C89.2155 99.4638 88.2582 99.4034 87.3077 99.2851L88.8245 100.751L84.9833 104.462L81.1421 100.751L83.4468 98.5239C82.7457 98.3298 82.0554 98.1011 81.3785 97.8387L79.7238 99.4088L75.8432 95.6977L76.3259 95.2314C75.922 94.9555 75.5281 94.6891 75.144 94.3941C72.6586 95.4428 69.9767 95.9869 67.2646 95.9927C67.0676 95.9927 66.8706 95.9927 66.6737 95.9927C66.5989 96.5113 66.6529 97.0397 66.8312 97.5342L86.9039 151.888C86.9259 151.953 86.9522 152.016 86.9827 152.078C87.0095 152.144 87.0425 152.208 87.0812 152.268C87.1501 152.401 87.2289 152.525 87.3077 152.649L87.3963 152.772C87.5176 152.929 87.6527 153.076 87.8002 153.21L87.8987 153.286L88.2828 153.572L88.4601 153.667C88.5964 153.74 88.7379 153.804 88.8836 153.857H88.9919L89.3859 153.952H89.5435C89.9082 154.016 90.2818 154.016 90.6466 153.952H90.814L91.1981 153.857H91.3656C91.5072 153.802 91.6453 153.738 91.7792 153.667L91.9565 153.562C92.0948 153.484 92.2236 153.392 92.3406 153.286L92.449 153.21C92.5938 153.073 92.7287 152.927 92.8528 152.772L92.9316 152.649C93.0197 152.528 93.0987 152.4 93.168 152.268L93.3452 151.888L113.457 97.5057C113.64 97.0122 113.694 96.4827 113.615 95.9641C113.418 95.9641 113.27 95.9927 113.024 95.9927ZM99.2351 110.866L95.3939 114.577L91.6019 110.866L95.4333 107.155L99.2351 110.866ZM86.3425 115.918L90.1837 112.207L94.0248 115.918L90.1837 119.63L86.3425 115.918ZM94.0248 126.034L90.1837 129.745L86.3425 126.034L90.1837 122.322L94.0248 126.034ZM90.1837 102.102L94.0248 105.813L90.1837 109.495L86.3425 105.784L90.1837 102.102ZM88.7949 110.866L84.9537 114.577L81.1126 110.866L84.9537 107.155L88.7949 110.866ZM74.1098 97.4105L74.4841 97.0489L78.3252 100.751L76.1289 102.834L74.1098 97.4105ZM76.8282 104.861L79.6844 102.102L83.5158 105.813L79.7238 109.495L77.9608 107.792L76.8282 104.861ZM79.6155 112.35L79.7238 112.245L83.5552 115.956L81.6346 117.86L79.6155 112.35ZM83.7226 123.531L82.324 119.725L84.9143 117.232L88.7555 120.943L84.9537 124.72L83.7226 123.531ZM87.1009 132.685L85.2591 127.718L88.7555 131.086L87.1009 132.685ZM90.1049 140.83L87.8297 134.664L90.1443 132.428L92.3997 134.607L90.1049 140.83ZM93.1384 132.628L91.6019 131.086L94.9605 127.832L93.1384 132.628ZM96.5265 123.655L95.4136 124.72L91.6019 120.971L95.4333 117.27L97.9645 119.706L96.5265 123.655ZM98.7131 117.726L96.8516 115.918L100.693 112.207V112.255L98.7131 117.726ZM102.328 107.935L100.653 109.495L96.8122 105.784L100.653 102.073L103.421 104.804L102.328 107.935ZM104.179 102.834L102.042 100.76L105.883 97.0489L106.198 97.3534L104.179 102.834Z" fill="white"/>
</svg>
