<svg width="512" height="512" viewBox="0 0 512 512" fill="none" xmlns="http://www.w3.org/2000/svg">
<rect width="512" height="512" fill="#E84D37"/>
<path d="M262.403 90.831C276.046 90.8276 289.449 94.328 301.272 100.981C313.094 107.635 322.919 117.207 329.764 128.74C336.608 140.273 340.231 153.362 340.269 166.694C340.308 180.026 336.76 193.134 329.982 204.704C334.684 205.36 339.106 207.283 342.752 210.257C346.399 213.231 349.126 217.138 350.628 221.541C352.13 225.944 352.347 230.669 351.256 235.186C350.165 239.703 347.808 243.834 344.45 247.116C341.092 250.398 336.865 252.701 332.242 253.768C327.62 254.834 322.785 254.621 318.28 253.153C313.774 251.685 309.776 249.02 306.733 245.457C303.69 241.894 301.723 237.572 301.051 232.978C300.088 233.516 299.097 234.027 298.106 234.538C296.729 242.822 292.381 250.357 285.84 255.795C279.299 261.233 270.991 264.219 262.403 264.219C253.815 264.219 245.508 261.233 238.967 255.795C232.425 250.357 228.077 242.822 226.7 234.538C225.709 234.027 224.718 233.516 223.755 232.978C223.085 237.577 221.117 241.902 218.071 245.469C215.026 249.035 211.023 251.702 206.513 253.169C202.003 254.636 197.164 254.845 192.539 253.774C187.913 252.702 183.685 250.392 180.329 247.103C176.972 243.813 174.621 239.675 173.537 235.151C172.454 230.628 172.682 225.9 174.196 221.496C175.71 217.093 178.45 213.189 182.109 210.223C185.767 207.257 190.199 205.346 194.906 204.704C188.132 193.14 184.585 180.039 184.62 166.714C184.654 153.389 188.27 140.306 195.105 128.775C201.939 117.245 211.753 107.671 223.564 101.012C235.374 94.3524 248.768 90.8418 262.403 90.831ZM262.403 72C247.118 71.9908 232.046 75.5087 218.415 82.2674C204.784 89.026 192.978 98.8346 183.959 110.895C174.939 122.955 168.961 136.926 166.511 151.67C164.06 166.415 165.207 181.516 169.857 195.746C160.845 202.768 154.952 212.916 153.405 224.077C151.858 235.239 154.777 246.553 161.553 255.664C168.329 264.776 178.44 270.981 189.781 272.989C201.121 274.997 212.818 272.652 222.434 266.443C227.626 271.709 233.851 275.897 240.738 278.758C247.624 281.619 255.03 283.093 262.513 283.093C269.996 283.093 277.402 281.619 284.289 278.758C291.175 275.897 297.401 271.709 302.593 266.443C312.213 272.293 323.745 274.36 334.862 272.227C345.98 270.094 355.857 263.92 362.5 254.95C369.143 245.981 372.057 234.883 370.656 223.895C369.255 212.908 363.642 202.848 354.95 195.746C359.6 181.516 360.746 166.415 358.296 151.67C355.845 136.926 349.867 122.955 340.848 110.895C331.828 98.8346 320.023 89.026 306.391 82.2674C292.76 75.5087 277.689 71.9908 262.403 72Z" fill="white"/>
<path d="M326.349 284.009C318.769 283.993 311.273 282.455 304.327 279.49C303.309 280.297 302.235 281.023 301.162 281.777L302.62 283.175L291.885 293.667L287.288 289.174C285.388 289.901 283.462 290.546 281.48 291.111L287.976 297.46L277.268 307.952L266.477 297.46L270.744 293.29C268.005 293.632 265.247 293.812 262.486 293.828C259.807 293.822 257.132 293.652 254.475 293.317L258.715 297.46L247.979 307.952L237.243 297.46L243.685 291.165C241.725 290.617 239.796 289.97 237.904 289.228L233.279 293.667L222.434 283.175L223.783 281.857C222.654 281.077 221.553 280.324 220.479 279.49C213.533 282.455 206.037 283.993 198.457 284.009C197.907 284.009 197.356 284.009 196.806 284.009C196.597 285.476 196.748 286.969 197.246 288.367L253.347 442.028C253.408 442.212 253.482 442.391 253.567 442.566C253.642 442.753 253.734 442.933 253.842 443.104C254.035 443.481 254.255 443.83 254.475 444.18L254.723 444.53C255.062 444.973 255.44 445.387 255.852 445.767L256.127 445.982L257.201 446.789L257.696 447.058C258.077 447.265 258.473 447.445 258.88 447.596H259.183L260.284 447.865H260.724C261.744 448.045 262.788 448.045 263.807 447.865H264.275L265.349 447.596H265.817C266.212 447.439 266.598 447.26 266.973 447.058L267.468 446.762C267.855 446.542 268.215 446.281 268.542 445.982L268.845 445.767C269.249 445.38 269.626 444.967 269.973 444.53L270.193 444.18C270.44 443.837 270.66 443.478 270.854 443.104L271.35 442.028L327.56 288.287C328.071 286.892 328.223 285.395 328.001 283.929C327.45 283.929 327.037 284.009 326.349 284.009ZM287.811 326.056L277.075 336.548L266.477 326.056L277.185 315.565L287.811 326.056ZM251.778 340.341L262.513 329.849L273.249 340.341L262.513 350.832L251.778 340.341ZM273.249 368.937L262.513 379.428L251.778 368.937L262.513 358.445L273.249 368.937ZM262.513 301.28L273.249 311.772L262.513 322.182L251.778 311.691L262.513 301.28ZM258.632 326.056L247.896 336.548L237.161 326.056L247.896 315.565L258.632 326.056ZM217.589 288.018L218.635 286.995L229.371 297.46L223.232 303.351L217.589 288.018ZM225.186 309.081L233.169 301.28L243.877 311.772L233.279 322.182L228.352 317.367L225.186 309.081ZM232.977 330.253L233.279 329.957L243.987 340.448L238.62 345.829L232.977 330.253ZM244.455 361.862L240.547 351.101L247.786 344.053L258.522 354.545L247.896 365.225L244.455 361.862ZM253.897 387.741L248.75 373.698L258.522 383.222L253.897 387.741ZM262.293 410.769L255.934 393.336L262.403 387.015L268.707 393.175L262.293 410.769ZM270.771 387.58L266.477 383.222L275.864 374.021L270.771 387.58ZM280.241 362.212L277.13 365.225L266.477 354.625L277.185 344.161L284.26 351.048L280.241 362.212ZM286.352 345.452L281.149 340.341L291.885 329.849V329.984L286.352 345.452ZM296.454 317.771L291.775 322.182L281.039 311.691L291.775 301.199L299.51 308.92L296.454 317.771ZM301.629 303.351L295.656 297.487L306.392 286.995L307.273 287.856L301.629 303.351Z" fill="white"/>
</svg>
